<mxfile host="app.diagrams.net" agent="Mozilla/5.0 (Windows NT 10.0; Win64; x64) AppleWebKit/537.36 (KHTML, like Gecko) Chrome/127.0.0.0 Safari/537.36" version="24.7.5">
  <diagram name="Page-1" id="geNfl7wk_qMsvW0VsSqB">
    <mxGraphModel dx="1050" dy="505" grid="1" gridSize="10" guides="1" tooltips="1" connect="1" arrows="1" fold="1" page="1" pageScale="1" pageWidth="850" pageHeight="1100" math="0" shadow="0">
      <root>
        <mxCell id="0" />
        <mxCell id="1" parent="0" />
        <mxCell id="zfNojvX3D7eSNdbMJf8S-6" style="edgeStyle=orthogonalEdgeStyle;rounded=0;orthogonalLoop=1;jettySize=auto;html=1;exitX=0.75;exitY=0;exitDx=0;exitDy=0;" parent="1" source="zfNojvX3D7eSNdbMJf8S-1" target="zfNojvX3D7eSNdbMJf8S-4" edge="1">
          <mxGeometry relative="1" as="geometry" />
        </mxCell>
        <mxCell id="zfNojvX3D7eSNdbMJf8S-7" style="edgeStyle=orthogonalEdgeStyle;rounded=0;orthogonalLoop=1;jettySize=auto;html=1;exitX=0;exitY=0.5;exitDx=0;exitDy=0;entryX=1;entryY=0;entryDx=0;entryDy=0;" parent="1" source="zfNojvX3D7eSNdbMJf8S-1" target="zfNojvX3D7eSNdbMJf8S-3" edge="1">
          <mxGeometry relative="1" as="geometry" />
        </mxCell>
        <mxCell id="zfNojvX3D7eSNdbMJf8S-45" style="edgeStyle=orthogonalEdgeStyle;rounded=0;orthogonalLoop=1;jettySize=auto;html=1;exitX=0.5;exitY=1;exitDx=0;exitDy=0;entryX=0.5;entryY=0;entryDx=0;entryDy=0;" parent="1" source="zfNojvX3D7eSNdbMJf8S-1" target="zfNojvX3D7eSNdbMJf8S-38" edge="1">
          <mxGeometry relative="1" as="geometry" />
        </mxCell>
        <mxCell id="zfNojvX3D7eSNdbMJf8S-47" style="edgeStyle=orthogonalEdgeStyle;rounded=0;orthogonalLoop=1;jettySize=auto;html=1;exitX=1;exitY=0.5;exitDx=0;exitDy=0;entryX=0.5;entryY=0;entryDx=0;entryDy=0;" parent="1" source="zfNojvX3D7eSNdbMJf8S-1" target="zfNojvX3D7eSNdbMJf8S-39" edge="1">
          <mxGeometry relative="1" as="geometry" />
        </mxCell>
        <mxCell id="zfNojvX3D7eSNdbMJf8S-1" value="USERS" style="rounded=0;whiteSpace=wrap;html=1;" parent="1" vertex="1">
          <mxGeometry x="150" y="180" width="150" height="60" as="geometry" />
        </mxCell>
        <mxCell id="zfNojvX3D7eSNdbMJf8S-2" value="authorization" style="ellipse;whiteSpace=wrap;html=1;" parent="1" vertex="1">
          <mxGeometry x="90" y="80" width="100" height="80" as="geometry" />
        </mxCell>
        <mxCell id="zfNojvX3D7eSNdbMJf8S-3" value="admin previliges" style="ellipse;whiteSpace=wrap;html=1;" parent="1" vertex="1">
          <mxGeometry x="40" y="220" width="90" height="80" as="geometry" />
        </mxCell>
        <mxCell id="zfNojvX3D7eSNdbMJf8S-4" value="profile" style="ellipse;whiteSpace=wrap;html=1;" parent="1" vertex="1">
          <mxGeometry x="250" y="70" width="120" height="80" as="geometry" />
        </mxCell>
        <mxCell id="zfNojvX3D7eSNdbMJf8S-5" style="edgeStyle=orthogonalEdgeStyle;rounded=0;orthogonalLoop=1;jettySize=auto;html=1;exitX=0.25;exitY=0;exitDx=0;exitDy=0;entryX=0.76;entryY=0.908;entryDx=0;entryDy=0;entryPerimeter=0;" parent="1" source="zfNojvX3D7eSNdbMJf8S-1" target="zfNojvX3D7eSNdbMJf8S-2" edge="1">
          <mxGeometry relative="1" as="geometry" />
        </mxCell>
        <mxCell id="zfNojvX3D7eSNdbMJf8S-8" style="edgeStyle=orthogonalEdgeStyle;rounded=0;orthogonalLoop=1;jettySize=auto;html=1;exitX=0.75;exitY=0;exitDx=0;exitDy=0;" parent="1" source="zfNojvX3D7eSNdbMJf8S-10" target="zfNojvX3D7eSNdbMJf8S-13" edge="1">
          <mxGeometry relative="1" as="geometry" />
        </mxCell>
        <mxCell id="zfNojvX3D7eSNdbMJf8S-9" style="edgeStyle=orthogonalEdgeStyle;rounded=0;orthogonalLoop=1;jettySize=auto;html=1;exitX=0;exitY=0.5;exitDx=0;exitDy=0;entryX=1;entryY=0;entryDx=0;entryDy=0;" parent="1" source="zfNojvX3D7eSNdbMJf8S-10" target="zfNojvX3D7eSNdbMJf8S-12" edge="1">
          <mxGeometry relative="1" as="geometry" />
        </mxCell>
        <mxCell id="zfNojvX3D7eSNdbMJf8S-31" style="edgeStyle=orthogonalEdgeStyle;rounded=0;orthogonalLoop=1;jettySize=auto;html=1;exitX=0.5;exitY=1;exitDx=0;exitDy=0;entryX=0.5;entryY=0;entryDx=0;entryDy=0;" parent="1" source="zfNojvX3D7eSNdbMJf8S-10" target="zfNojvX3D7eSNdbMJf8S-29" edge="1">
          <mxGeometry relative="1" as="geometry" />
        </mxCell>
        <mxCell id="zfNojvX3D7eSNdbMJf8S-32" style="edgeStyle=orthogonalEdgeStyle;rounded=0;orthogonalLoop=1;jettySize=auto;html=1;exitX=1;exitY=0.5;exitDx=0;exitDy=0;entryX=0.5;entryY=0;entryDx=0;entryDy=0;" parent="1" source="zfNojvX3D7eSNdbMJf8S-10" target="zfNojvX3D7eSNdbMJf8S-30" edge="1">
          <mxGeometry relative="1" as="geometry" />
        </mxCell>
        <mxCell id="zfNojvX3D7eSNdbMJf8S-10" value="UPROFILE" style="rounded=0;whiteSpace=wrap;html=1;" parent="1" vertex="1">
          <mxGeometry x="580" y="180" width="150" height="60" as="geometry" />
        </mxCell>
        <mxCell id="zfNojvX3D7eSNdbMJf8S-11" value="user_name" style="ellipse;whiteSpace=wrap;html=1;" parent="1" vertex="1">
          <mxGeometry x="520" y="80" width="100" height="80" as="geometry" />
        </mxCell>
        <mxCell id="zfNojvX3D7eSNdbMJf8S-12" value="address" style="ellipse;whiteSpace=wrap;html=1;" parent="1" vertex="1">
          <mxGeometry x="480" y="260" width="90" height="80" as="geometry" />
        </mxCell>
        <mxCell id="zfNojvX3D7eSNdbMJf8S-13" value="email_id" style="ellipse;whiteSpace=wrap;html=1;" parent="1" vertex="1">
          <mxGeometry x="680" y="70" width="120" height="80" as="geometry" />
        </mxCell>
        <mxCell id="zfNojvX3D7eSNdbMJf8S-14" style="edgeStyle=orthogonalEdgeStyle;rounded=0;orthogonalLoop=1;jettySize=auto;html=1;exitX=0.25;exitY=0;exitDx=0;exitDy=0;entryX=0.76;entryY=0.908;entryDx=0;entryDy=0;entryPerimeter=0;" parent="1" source="zfNojvX3D7eSNdbMJf8S-10" target="zfNojvX3D7eSNdbMJf8S-11" edge="1">
          <mxGeometry relative="1" as="geometry" />
        </mxCell>
        <mxCell id="zfNojvX3D7eSNdbMJf8S-15" style="edgeStyle=orthogonalEdgeStyle;rounded=0;orthogonalLoop=1;jettySize=auto;html=1;exitX=0.75;exitY=0;exitDx=0;exitDy=0;" parent="1" source="zfNojvX3D7eSNdbMJf8S-17" target="zfNojvX3D7eSNdbMJf8S-20" edge="1">
          <mxGeometry relative="1" as="geometry" />
        </mxCell>
        <mxCell id="zfNojvX3D7eSNdbMJf8S-16" style="edgeStyle=orthogonalEdgeStyle;rounded=0;orthogonalLoop=1;jettySize=auto;html=1;exitX=0;exitY=0.5;exitDx=0;exitDy=0;entryX=1;entryY=0;entryDx=0;entryDy=0;" parent="1" source="zfNojvX3D7eSNdbMJf8S-17" target="zfNojvX3D7eSNdbMJf8S-19" edge="1">
          <mxGeometry relative="1" as="geometry" />
        </mxCell>
        <mxCell id="zfNojvX3D7eSNdbMJf8S-17" value="CART" style="rounded=0;whiteSpace=wrap;html=1;" parent="1" vertex="1">
          <mxGeometry x="160" y="540" width="150" height="60" as="geometry" />
        </mxCell>
        <mxCell id="zfNojvX3D7eSNdbMJf8S-18" value="no_of_products" style="ellipse;whiteSpace=wrap;html=1;" parent="1" vertex="1">
          <mxGeometry x="100" y="440" width="100" height="80" as="geometry" />
        </mxCell>
        <mxCell id="zfNojvX3D7eSNdbMJf8S-19" value="total_price" style="ellipse;whiteSpace=wrap;html=1;" parent="1" vertex="1">
          <mxGeometry x="50" y="580" width="90" height="80" as="geometry" />
        </mxCell>
        <mxCell id="zfNojvX3D7eSNdbMJf8S-20" value="cart_id" style="ellipse;whiteSpace=wrap;html=1;" parent="1" vertex="1">
          <mxGeometry x="270" y="410" width="120" height="80" as="geometry" />
        </mxCell>
        <mxCell id="zfNojvX3D7eSNdbMJf8S-21" style="edgeStyle=orthogonalEdgeStyle;rounded=0;orthogonalLoop=1;jettySize=auto;html=1;exitX=0.25;exitY=0;exitDx=0;exitDy=0;entryX=0.76;entryY=0.908;entryDx=0;entryDy=0;entryPerimeter=0;" parent="1" source="zfNojvX3D7eSNdbMJf8S-17" target="zfNojvX3D7eSNdbMJf8S-18" edge="1">
          <mxGeometry relative="1" as="geometry" />
        </mxCell>
        <mxCell id="zfNojvX3D7eSNdbMJf8S-22" style="edgeStyle=orthogonalEdgeStyle;rounded=0;orthogonalLoop=1;jettySize=auto;html=1;exitX=0.75;exitY=0;exitDx=0;exitDy=0;" parent="1" source="zfNojvX3D7eSNdbMJf8S-24" target="zfNojvX3D7eSNdbMJf8S-27" edge="1">
          <mxGeometry relative="1" as="geometry" />
        </mxCell>
        <mxCell id="zfNojvX3D7eSNdbMJf8S-36" style="edgeStyle=orthogonalEdgeStyle;rounded=0;orthogonalLoop=1;jettySize=auto;html=1;exitX=0.5;exitY=1;exitDx=0;exitDy=0;" parent="1" source="zfNojvX3D7eSNdbMJf8S-24" target="zfNojvX3D7eSNdbMJf8S-34" edge="1">
          <mxGeometry relative="1" as="geometry" />
        </mxCell>
        <mxCell id="zfNojvX3D7eSNdbMJf8S-37" style="edgeStyle=orthogonalEdgeStyle;rounded=0;orthogonalLoop=1;jettySize=auto;html=1;exitX=1;exitY=0.5;exitDx=0;exitDy=0;" parent="1" source="zfNojvX3D7eSNdbMJf8S-24" target="zfNojvX3D7eSNdbMJf8S-35" edge="1">
          <mxGeometry relative="1" as="geometry" />
        </mxCell>
        <mxCell id="zfNojvX3D7eSNdbMJf8S-43" style="edgeStyle=orthogonalEdgeStyle;rounded=0;orthogonalLoop=1;jettySize=auto;html=1;exitX=0;exitY=0.75;exitDx=0;exitDy=0;" parent="1" source="zfNojvX3D7eSNdbMJf8S-24" edge="1">
          <mxGeometry relative="1" as="geometry">
            <mxPoint x="580" y="585" as="targetPoint" />
          </mxGeometry>
        </mxCell>
        <mxCell id="zfNojvX3D7eSNdbMJf8S-44" style="edgeStyle=orthogonalEdgeStyle;rounded=0;orthogonalLoop=1;jettySize=auto;html=1;exitX=0;exitY=0.75;exitDx=0;exitDy=0;entryX=0.5;entryY=0;entryDx=0;entryDy=0;" parent="1" source="zfNojvX3D7eSNdbMJf8S-24" target="zfNojvX3D7eSNdbMJf8S-26" edge="1">
          <mxGeometry relative="1" as="geometry" />
        </mxCell>
        <mxCell id="3H21nFaw-EGTnVlslmrR-2" style="edgeStyle=orthogonalEdgeStyle;rounded=0;orthogonalLoop=1;jettySize=auto;html=1;exitX=0.75;exitY=1;exitDx=0;exitDy=0;" edge="1" parent="1" source="zfNojvX3D7eSNdbMJf8S-24" target="3H21nFaw-EGTnVlslmrR-1">
          <mxGeometry relative="1" as="geometry" />
        </mxCell>
        <mxCell id="zfNojvX3D7eSNdbMJf8S-24" value="" style="rounded=0;whiteSpace=wrap;html=1;" parent="1" vertex="1">
          <mxGeometry x="600" y="540" width="150" height="60" as="geometry" />
        </mxCell>
        <mxCell id="zfNojvX3D7eSNdbMJf8S-25" value="product_name" style="ellipse;whiteSpace=wrap;html=1;" parent="1" vertex="1">
          <mxGeometry x="540" y="440" width="100" height="80" as="geometry" />
        </mxCell>
        <mxCell id="zfNojvX3D7eSNdbMJf8S-26" value="information" style="ellipse;whiteSpace=wrap;html=1;" parent="1" vertex="1">
          <mxGeometry x="470" y="640" width="90" height="80" as="geometry" />
        </mxCell>
        <mxCell id="zfNojvX3D7eSNdbMJf8S-27" value="product_id" style="ellipse;whiteSpace=wrap;html=1;" parent="1" vertex="1">
          <mxGeometry x="700" y="430" width="120" height="80" as="geometry" />
        </mxCell>
        <mxCell id="zfNojvX3D7eSNdbMJf8S-28" style="edgeStyle=orthogonalEdgeStyle;rounded=0;orthogonalLoop=1;jettySize=auto;html=1;exitX=0.25;exitY=0;exitDx=0;exitDy=0;entryX=0.76;entryY=0.908;entryDx=0;entryDy=0;entryPerimeter=0;" parent="1" source="zfNojvX3D7eSNdbMJf8S-24" target="zfNojvX3D7eSNdbMJf8S-25" edge="1">
          <mxGeometry relative="1" as="geometry" />
        </mxCell>
        <mxCell id="zfNojvX3D7eSNdbMJf8S-29" value="contact_no" style="ellipse;whiteSpace=wrap;html=1;" parent="1" vertex="1">
          <mxGeometry x="595" y="280" width="105" height="50" as="geometry" />
        </mxCell>
        <mxCell id="zfNojvX3D7eSNdbMJf8S-30" value="date_of_birth" style="ellipse;whiteSpace=wrap;html=1;" parent="1" vertex="1">
          <mxGeometry x="770" y="220" width="120" height="80" as="geometry" />
        </mxCell>
        <mxCell id="zfNojvX3D7eSNdbMJf8S-34" value="price" style="ellipse;whiteSpace=wrap;html=1;" parent="1" vertex="1">
          <mxGeometry x="570" y="630" width="110" height="80" as="geometry" />
        </mxCell>
        <mxCell id="zfNojvX3D7eSNdbMJf8S-35" value="product_review" style="ellipse;whiteSpace=wrap;html=1;" parent="1" vertex="1">
          <mxGeometry x="780" y="570" width="120" height="80" as="geometry" />
        </mxCell>
        <mxCell id="zfNojvX3D7eSNdbMJf8S-46" style="edgeStyle=orthogonalEdgeStyle;rounded=0;orthogonalLoop=1;jettySize=auto;html=1;exitX=0.5;exitY=1;exitDx=0;exitDy=0;" parent="1" source="zfNojvX3D7eSNdbMJf8S-38" target="zfNojvX3D7eSNdbMJf8S-17" edge="1">
          <mxGeometry relative="1" as="geometry" />
        </mxCell>
        <mxCell id="zfNojvX3D7eSNdbMJf8S-38" value="one to one" style="rhombus;whiteSpace=wrap;html=1;" parent="1" vertex="1">
          <mxGeometry x="180" y="310" width="80" height="80" as="geometry" />
        </mxCell>
        <mxCell id="zfNojvX3D7eSNdbMJf8S-48" style="edgeStyle=orthogonalEdgeStyle;rounded=0;orthogonalLoop=1;jettySize=auto;html=1;exitX=0.5;exitY=1;exitDx=0;exitDy=0;entryX=0;entryY=0.25;entryDx=0;entryDy=0;" parent="1" source="zfNojvX3D7eSNdbMJf8S-39" target="zfNojvX3D7eSNdbMJf8S-10" edge="1">
          <mxGeometry relative="1" as="geometry" />
        </mxCell>
        <mxCell id="zfNojvX3D7eSNdbMJf8S-39" value="one to one" style="rhombus;whiteSpace=wrap;html=1;direction=north;" parent="1" vertex="1">
          <mxGeometry x="360" y="180" width="80" height="80" as="geometry" />
        </mxCell>
        <mxCell id="zfNojvX3D7eSNdbMJf8S-49" value="PRODUCTS" style="rounded=0;whiteSpace=wrap;html=1;" parent="1" vertex="1">
          <mxGeometry x="625" y="550" width="100" height="40" as="geometry" />
        </mxCell>
        <mxCell id="zfNojvX3D7eSNdbMJf8S-52" style="edgeStyle=orthogonalEdgeStyle;rounded=0;orthogonalLoop=1;jettySize=auto;html=1;exitX=1;exitY=0.5;exitDx=0;exitDy=0;entryX=0;entryY=0.5;entryDx=0;entryDy=0;" parent="1" source="zfNojvX3D7eSNdbMJf8S-50" target="zfNojvX3D7eSNdbMJf8S-24" edge="1">
          <mxGeometry relative="1" as="geometry" />
        </mxCell>
        <mxCell id="zfNojvX3D7eSNdbMJf8S-53" style="edgeStyle=orthogonalEdgeStyle;rounded=0;orthogonalLoop=1;jettySize=auto;html=1;exitX=0;exitY=0.5;exitDx=0;exitDy=0;" parent="1" source="zfNojvX3D7eSNdbMJf8S-50" target="zfNojvX3D7eSNdbMJf8S-17" edge="1">
          <mxGeometry relative="1" as="geometry" />
        </mxCell>
        <mxCell id="zfNojvX3D7eSNdbMJf8S-50" value="" style="rhombus;whiteSpace=wrap;html=1;" parent="1" vertex="1">
          <mxGeometry x="370" y="530" width="120" height="80" as="geometry" />
        </mxCell>
        <mxCell id="zfNojvX3D7eSNdbMJf8S-51" value="one to many" style="rhombus;whiteSpace=wrap;html=1;" parent="1" vertex="1">
          <mxGeometry x="390" y="540" width="80" height="60" as="geometry" />
        </mxCell>
        <mxCell id="3H21nFaw-EGTnVlslmrR-1" value="product image" style="ellipse;whiteSpace=wrap;html=1;" vertex="1" parent="1">
          <mxGeometry x="690" y="640" width="120" height="80" as="geometry" />
        </mxCell>
      </root>
    </mxGraphModel>
  </diagram>
</mxfile>
